<svg width="16" height="16" viewBox="12 2 22 22" fill="none" xmlns="http://www.w3.org/2000/svg">
  <!-- Simplified crown icon -->
  <path d="M22.5522 4V2" stroke="#a480ff" stroke-width="1.5" stroke-linecap="round" stroke-linejoin="round" fill="none"/>
  <path d="M15.5522 10V14C15.5524 15.5569 16.0713 17.0693 17.0269 18.2984C17.9825 19.5275 19.3204 20.4031 20.8292 20.787C21.2412 20.891 21.6312 21.079 21.9312 21.379L22.5522 22L23.1732 21.379C23.4732 21.079 23.8632 20.891 24.2752 20.787C25.7841 20.4033 27.1221 19.5277 28.0778 18.2986C29.0334 17.0694 29.5523 15.5569 29.5522 14V10" stroke="#a480ff" stroke-width="1.5" stroke-linecap="round" stroke-linejoin="round" fill="none"/>
  <path d="M22.5522 4C18.5522 4 15.0522 6 14.5522 8C14.3092 8.97 13.6332 9.952 12.5522 11C13.8622 10.918 14.5242 10.71 15.5522 10C16.0922 10.92 16.5342 11.356 17.5522 12C19.0042 11.353 19.5062 10.902 20.0522 10C20.6472 10.995 21.2032 11.427 22.5522 12C23.8622 11.379 24.4142 10.942 25.0522 10C25.6812 10.977 26.2142 11.423 27.5522 12C28.7612 11.452 29.2322 11.033 29.5522 10C30.5842 10.916 31.2352 11.157 32.5522 11C31.2552 9.964 30.7942 8.97 30.5522 8C30.0522 6 26.5522 4 22.5522 4Z" stroke="#a480ff" stroke-width="1.5" stroke-linecap="round" stroke-linejoin="round" fill="none"/>
</svg>
